<?xml version="1.0" encoding="utf-8"?>
<svg version="1.1" xmlns="http://www.w3.org/2000/svg" xmlns:xlink="http://www.w3.org/1999/xlink" x="0px" y="0px" viewBox="0 0 421.5 159.4">
    <style type="text/css">
        .st0{fill:#ED1C24;}
        .st1{fill:#0072BC;}
        .st2{fill:#000000;}
    </style>
    <path class="st2" d="M236.9,157l-3.3-4.4c-3.8,4.5-9.2,6.9-15.9,6.9c-10.5,0-18.3-6.4-18.3-16.3c0-9,6.2-14.4,14.4-16.6l-5.9-7.7 c-1.5-2-1.8-4.6-0.7-6.9s3.4-3.8,6-3.8h19c2.1,0,3.7,1.7,3.7,3.7c0,2.1-2.2,3-4.3,3h-16l17.4,23.5l2.7-5.9c0.6-1.4,2-2.3,3.6-2.3 c2.9,0,4.8,3.1,3.6,5.7l-4.7,9.6l5,6.6c1.9,2.6,0.1,6.2-3.1,6.2C238.8,158.6,237.7,158,236.9,157 M229,146.6l-11.2-14.5 c-5.2,1.7-9.4,5-9.4,11.1c0,5.6,3.7,9.3,9.9,9.3C223.2,152.5,226.4,150.7,229,146.6"/>
    <path class="st0" d="M69.8,62.5l21-37.2l21,37.2H134l-30.8-54c-1.7-2.9-3.6-5-5.9-6.4C95.1,0.7,92.8,0,90.6,0c-2.4,0-4.8,0.7-7,2.2 c-2.2,1.4-4.1,3.5-5.6,6.3l-30.6,54H69.8z"/>
    <path class="st0" d="M180,143l-19.8-34.8h-22.4l26.1,46.2v-0.2c0.9,1.7,2.1,3,3.5,3.8c1.5,0.8,3,1.2,4.5,1.2c2.4,0,4.7-0.9,6.8-2.8 c2.1-1.8,3.2-4.3,3.2-7.3c0-1.8-0.7-3.9-2.1-6.2h0.2V143z"/>
    <path class="st0" d="M21.4,108.2L1.5,143.4l0.1-0.2c-0.7,1-1.1,2.1-1.3,3.1s-0.3,2-0.3,2.8c0,3.1,1.1,5.6,3.2,7.5s4.4,2.8,6.9,2.8 c1.7,0,3.1-0.3,4.4-1s2.3-1.9,3.2-3.6L44,108.2H21.4z"/>
    <path class="st1" d="M284.3,62.5V39.2c0-12.6,13.5-18.8,40.4-18.8h15c4.7,0,7-3.1,7-9.3c0-6.3-2.3-9.5-7-9.5h-21.1 c-36.3,0-54.4,12.6-54.4,37.7v23.3h20.1V62.5z"/>
    <path class="st1" d="M409.3,108.3C409.3,108.3,409.3,108.2,409.3,108.3H363c-4.6,0-8.3,3.7-8.3,8.3c0,4.6,3.7,8.3,8.3,8.3h38.2 c-1.5,10.6-11.1,15.9-29.1,15.9h-53.6c-22.8,0-34.2-6.4-34.2-19.3v-13.2h-20.1v13.2c0,25.4,18,38.2,53.9,38.2h54.1 c32.8,0,49.2-12.8,49.2-38.3v-13L409.3,108.3z"/>
    <path class="st2" d="M57.3,77.7H50c-1.6,0-2.4-0.9-2.4-2.6c0-1.8,0.8-2.6,2.4-2.6h19.9c1.6,0,2.4,0.9,2.4,2.6c0,1.8-0.8,2.7-2.4,2.7h-7.3v19.9 c0,1.8-0.9,2.8-2.6,2.8c-1.8,0-2.7-0.9-2.7-2.8C57.3,97.7,57.3,77.7,57.3,77.7z"/>
    <path class="st2" d="M60,100.6c-1.9,0-2.8-1-2.8-2.9V77.8H50c-1.7,0-2.5-0.9-2.5-2.7c0-1.8,0.8-2.7,2.5-2.7h19.9c1.7,0,2.5,0.9,2.5,2.7 c0,1.9-0.8,2.8-2.5,2.8h-7.2v19.8C62.7,99.6,61.8,100.6,60,100.6z M50,72.6c-1.6,0-2.3,0.8-2.3,2.5c0,1.6,0.8,2.5,2.3,2.5h7.4v20.1 c0,1.8,0.8,2.7,2.6,2.7c1.6,0,2.5-0.9,2.5-2.7v-20h7.4c1.5,0,2.3-0.8,2.3-2.6c0-1.6-0.8-2.5-2.3-2.5H50z"/>
    <path class="st2" d="M88.2,89.1h-7v8.5c0,1.8-0.9,2.8-2.7,2.8c-1.8,0-2.6-0.9-2.6-2.8V75c0-1.8,0.9-2.8,2.7-2.8c1.8,0,2.6,0.9,2.6,2.8v8.8h7 M90.7,83.8h6.9v-8.9c0-1.8,0.8-2.7,2.6-2.7c1.8,0,2.7,0.9,2.7,2.7v22.7c0,1.8-0.9,2.8-2.7,2.8c-1.7,0-2.6-0.9-2.6-2.8v-8.5h-6.9"/>
    <path class="st2" d="M100.2,100.5c-1.8,0-2.7-1-2.7-2.9v-8.4h-6.8V89h7v8.6c0,1.8,0.8,2.7,2.5,2.7c1.7,0,2.6-0.9,2.6-2.7V74.9 c0-1.7-0.8-2.6-2.6-2.6c-1.7,0-2.5,0.8-2.5,2.6v9h-7v-0.3h6.8v-8.8c0-1.9,0.9-2.8,2.7-2.8c1.9,0,2.8,1,2.8,2.8v22.7 C103,99.5,102,100.5,100.2,100.5z M78.5,100.5c-1.9,0-2.7-0.9-2.7-2.9V75c0-1.9,1-2.9,2.8-2.9c1.9,0,2.7,0.9,2.7,2.9v8.7h6.9v0.3 h-7.1V75c0-1.9-0.8-2.7-2.5-2.7c-1.7,0-2.6,0.9-2.6,2.7v22.6c0,1.8,0.8,2.7,2.5,2.7c1.7,0,2.6-0.9,2.6-2.7V89h7.1v0.3h-6.9v8.4 C81.3,99.5,80.3,100.5,78.5,100.5z"/>
    <path class="st2" d="M117.4,100.2c-6.4,0-9.6-2.6-9.6-7.8V80c0-5,3.1-7.5,9.4-7.5h4c1.6,0,2.4,0.9,2.4,2.6c0,1.8-0.8,2.7-2.4,2.7h-3.9 c-2.8,0-4.2,0.8-4.2,2.4v3.6h17.1c1.5,0,2.2,0.8,2.2,2.4s-0.7,2.5-2.2,2.5h-17.1v3.4c0,1.8,1.5,2.8,4.6,2.8h12.4 c1.6,0,2.4,0.8,2.4,2.6c0,1.8-0.8,2.7-2.4,2.7H117.4z"/>
    <path class="st2" d="M130.1,100.3h-12.7c-6.5,0-9.7-2.7-9.7-7.9V80c0-5.1,3.2-7.6,9.5-7.6h4c1.7,0,2.5,0.9,2.5,2.7c0,1.9-0.8,2.8-2.5,2.8h-3.9 c-2.7,0-4.1,0.7-4.1,2.3v3.5h17c1.5,0,2.3,0.8,2.3,2.5c0,1.7-0.8,2.6-2.3,2.6h-17v3.3c0,1.8,1.5,2.7,4.5,2.7h12.4 c1.7,0,2.5,0.9,2.5,2.7C132.6,99.4,131.8,100.3,130.1,100.3z M117.2,72.6c-6.2,0-9.3,2.4-9.3,7.4v12.4c0,5.1,3.2,7.7,9.5,7.7h12.7 c1.5,0,2.3-0.8,2.3-2.6c0-1.7-0.7-2.5-2.3-2.5h-12.4c-3.9,0-4.7-1.6-4.7-2.9v-3.5h17.2c1.4,0,2.1-0.8,2.1-2.4 c0-1.6-0.7-2.3-2.1-2.3H113v-3.7c0-1.7,1.5-2.5,4.3-2.5h3.9c1.5,0,2.3-0.8,2.3-2.6c0-1.6-0.8-2.5-2.3-2.5H117.2z"/>
    <path class="st2" d="M142.3,90.1v7.6c0,1.8-0.9,2.8-2.7,2.8s-2.6-0.9-2.6-2.8V74.6c0-1.4,0.7-2.1,2.1-2.1h14.8c6.8,0,10.2,2.4,10.2,7.4v2.5 c0,4.8-3.4,7.1-10.2,7.1H151l9.8,5.5c1.1,0.6,1.6,1.3,1.6,2.6c0,1.8-1,2.8-2.8,2.8c-0.7,0-1.1-0.2-2-0.7L142.3,90.1z M142.3,84.8 h11.9c3.1,0,4.6-0.8,4.6-2.4v-2.3c0-1.6-1.5-2.4-4.6-2.4h-11.5c-0.2,0-0.3,0.1-0.3,0.4L142.3,84.8L142.3,84.8z"/>
    <path class="st2" d="M139.6,100.6c-1.9,0-2.7-0.9-2.7-2.9V74.6c0-1.5,0.7-2.2,2.2-2.2h14.8c6.9,0,10.3,2.5,10.3,7.5v2.5c0,4.9-3.4,7.2-10.3,7.2 h-2.4l9.4,5.3c1.2,0.7,1.7,1.4,1.7,2.7c0,1.9-1.1,2.9-2.9,2.9c-0.7,0-1.2-0.2-2.1-0.7l-15.1-9.5v7.4 C142.4,99.6,141.4,100.6,139.6,100.6z M139.1,72.6c-1.3,0-2,0.6-2,2v23.1c0,1.8,0.8,2.7,2.5,2.7c1.7,0,2.6-0.9,2.6-2.7v-7.8 l15.5,9.7c0.9,0.5,1.3,0.7,1.9,0.7c1.7,0,2.7-1,2.7-2.7c0-1.2-0.4-1.9-1.5-2.5l-10.2-5.7h3.4c6.8,0,10.1-2.3,10.1-7v-2.5 c0-4.9-3.3-7.3-10.1-7.3H139.1z M154.2,84.9h-11.9v-0.1h0v-6.7c0-0.1,0-0.5,0.4-0.5h11.5c3.2,0,4.7,0.8,4.7,2.5v2.3 C158.9,84.1,157.4,84.9,154.2,84.9z M142.5,84.7h11.7c3,0,4.5-0.7,4.5-2.3v-2.3c0-1.5-1.5-2.3-4.5-2.3h-11.5c-0.1,0-0.2,0-0.2,0.3 V84.7z"/>
    <path class="st2" d="M198.8,83.4l-9.6,15.3c-0.5,0.8-1.4,1.8-2.9,1.8s-2.4-1-2.9-1.8l-9.6-15.3v14.3c0,1.8-0.9,2.8-2.7,2.8s-2.6-0.9-2.6-2.8 V75.3c0-2,0.9-3,2.7-3c1.6,0,2.4,0.8,3.3,2.1l11.9,18.9l11.9-18.9c0.8-1.3,1.6-2.1,3.3-2.1c1.8,0,2.7,1.1,2.7,3v22.3 c0,1.8-0.9,2.8-2.6,2.8c-1.8,0-2.7-0.9-2.7-2.8V83.4H198.8z"/> 
    <path class="st2" d="M186.3,100.6c-1.2,0-2.2-0.6-3-1.9l-9.4-14.9v13.9c0,1.9-1,2.9-2.8,2.9c-1.9,0-2.7-0.9-2.7-2.9V75.3c0-2.1,1-3.1,2.8-3.1 c1.6,0,2.4,0.8,3.4,2.2l11.8,18.7l11.8-18.7c0.8-1.4,1.7-2.2,3.4-2.2c1.8,0,2.8,1.1,2.8,3.1v22.3c0,1.9-1,2.9-2.7,2.9 c-1.9,0-2.8-1-2.8-2.9l0-14.1l-9.6,15.2C188.5,100,187.5,100.6,186.3,100.6z M173.7,83l9.8,15.7c0.7,1.2,1.7,1.7,2.8,1.7 s2.1-0.6,2.8-1.7l9.6-15.4h0.4v14.3c0,1.8,0.8,2.7,2.6,2.7c1.6,0,2.5-0.9,2.5-2.7V75.3c0-1.9-0.9-2.9-2.6-2.9c-1.6,0-2.4,0.7-3.2,2 l-12,19.1l-0.1-0.2l-11.9-18.9c-0.9-1.3-1.7-2-3.2-2c-1.7,0-2.6,0.9-2.6,2.9v22.4c0,1.8,0.8,2.7,2.5,2.7c1.7,0,2.6-0.9,2.6-2.7V83z "/>
    <path class="st2" d="M247.9,77.7h-7.3c-1.6,0-2.4-0.9-2.4-2.6c0-1.8,0.8-2.6,2.4-2.6h19.9c1.6,0,2.4,0.9,2.4,2.6c0,1.8-0.8,2.7-2.4,2.7h-7.3 v19.9c0,1.8-0.9,2.8-2.6,2.8c-1.8,0-2.7-0.9-2.7-2.8V77.7z"/>
    <path class="st2" d="M250.6,100.6c-1.9,0-2.8-1-2.8-2.9V77.8h-7.2c-1.7,0-2.5-0.9-2.5-2.7c0-1.8,0.8-2.7,2.5-2.7h19.9c1.7,0,2.5,0.9,2.5,2.7 c0,1.9-0.8,2.8-2.5,2.8h-7.2v19.8C253.3,99.6,252.4,100.6,250.6,100.6z M240.6,72.6c-1.6,0-2.3,0.8-2.3,2.5c0,1.6,0.8,2.5,2.3,2.5 h7.4v20.1c0,1.8,0.8,2.7,2.6,2.7c1.6,0,2.5-0.9,2.5-2.7v-20h7.4c1.5,0,2.3-0.8,2.3-2.6c0-1.6-0.8-2.5-2.3-2.5H240.6z"/> 
    <path class="st2" d="M275.5,100.2c-6.4,0-9.6-2.6-9.6-7.8V80c0-5,3.1-7.5,9.4-7.5h4c1.6,0,2.4,0.9,2.4,2.6c0,1.8-0.8,2.7-2.4,2.7h-3.9 c-2.8,0-4.2,0.8-4.2,2.4v3.6h17.1c1.5,0,2.2,0.8,2.2,2.4s-0.7,2.5-2.2,2.5h-17.1v3.4c0,1.8,1.5,2.8,4.6,2.8h12.4 c1.6,0,2.4,0.8,2.4,2.6c0,1.8-0.8,2.7-2.4,2.7H275.5z"/>
    <path class="st2" d="M288.2,100.3h-12.7c-6.5,0-9.7-2.7-9.7-7.9V80c0-5.1,3.2-7.6,9.5-7.6h4c1.7,0,2.5,0.9,2.5,2.7c0,1.9-0.8,2.8-2.5,2.8h-3.9 c-2.7,0-4.1,0.7-4.1,2.3v3.5h17c1.5,0,2.3,0.8,2.3,2.5c0,1.7-0.8,2.6-2.3,2.6h-17v3.3c0,1.8,1.5,2.7,4.5,2.7h12.4 c1.7,0,2.5,0.9,2.5,2.7C290.7,99.4,289.9,100.3,288.2,100.3z M275.3,72.6c-6.2,0-9.3,2.4-9.3,7.4v12.4c0,5.1,3.2,7.7,9.5,7.7h12.7 c1.5,0,2.3-0.8,2.3-2.6c0-1.7-0.7-2.5-2.3-2.5h-12.4c-3.9,0-4.7-1.6-4.7-2.9v-3.5h17.2c1.4,0,2.1-0.8,2.1-2.4 c0-1.6-0.7-2.3-2.1-2.3h-17.2v-3.7c0-1.7,1.5-2.5,4.3-2.5h3.9c1.5,0,2.3-0.8,2.3-2.6c0-1.6-0.8-2.5-2.3-2.5H275.3z"/>
    <path class="st2" d="M304.6,100.2c-6.4,0-9.6-2.6-9.6-7.8V80c0-5,3.1-7.5,9.4-7.5h11.8c1.6,0,2.4,0.9,2.4,2.6c0,1.8-0.8,2.7-2.4,2.7h-11.7 c-2.8,0-4.2,0.8-4.2,2.4v12c0,1.8,1.5,2.8,4.6,2.8h11.3c1.6,0,2.4,0.8,2.4,2.6c0,1.8-0.8,2.7-2.4,2.7L304.6,100.2L304.6,100.2z"/>
    <path class="st2" d="M316.2,100.4h-11.7v-0.1c-6.4,0-9.6-2.7-9.6-7.9V80c0-5.1,3.2-7.6,9.5-7.6h11.8c1.7,0,2.5,0.9,2.5,2.7 c0,1.9-0.8,2.8-2.5,2.8h-11.7c-2.7,0-4.1,0.7-4.1,2.3v12c0,1.8,1.5,2.7,4.5,2.7h11.3c1.7,0,2.5,0.9,2.5,2.7 C318.7,99.5,317.9,100.4,316.2,100.4z M304.7,100.2h11.5c1.5,0,2.3-0.8,2.3-2.6c0-1.7-0.7-2.5-2.3-2.5h-11.3 c-3.9,0-4.7-1.6-4.7-2.9v-12c0-1.7,1.5-2.5,4.3-2.5h11.7c1.5,0,2.3-0.8,2.3-2.6c0-1.6-0.8-2.5-2.3-2.5h-11.8 c-6.2,0-9.3,2.4-9.3,7.4v12.4c0,5.1,3.2,7.7,9.5,7.7L304.7,100.2L304.7,100.2z"/>
    <path class="st2" d="M335.1,89.1h-6.8v8.5c0,1.8-0.9,2.8-2.7,2.8c-1.8,0-2.6-0.9-2.6-2.8V75c0-1.8,0.9-2.8,2.7-2.8c1.8,0,2.6,0.9,2.6,2.8v8.8 h6.8 M337.8,83.8h6.8v-8.9c0-1.8,0.8-2.7,2.6-2.7c1.8,0,2.7,0.9,2.7,2.7v22.7c0,1.8-0.9,2.8-2.7,2.8c-1.7,0-2.6-0.9-2.6-2.8v-8.5 h-6.8"/>
    <path class="st2" d="M347.2,100.5c-1.8,0-2.7-1-2.7-2.9v-8.4h-6.7V89h6.9v8.6c0,1.8,0.8,2.7,2.5,2.7c1.7,0,2.6-0.9,2.6-2.7V74.9 c0-1.7-0.8-2.6-2.6-2.6c-1.7,0-2.5,0.8-2.5,2.6v9h-6.9v-0.3h6.7v-8.8c0-1.9,0.9-2.8,2.7-2.8c1.9,0,2.8,1,2.8,2.8v22.7 C350,99.5,349,100.5,347.2,100.5z M325.6,100.5c-1.9,0-2.7-0.9-2.7-2.9V75c0-1.9,1-2.9,2.8-2.9c1.9,0,2.7,0.9,2.7,2.9v8.7h6.7v0.3 h-6.9V75c0-1.9-0.8-2.7-2.5-2.7c-1.7,0-2.6,0.9-2.6,2.7v22.6c0,1.8,0.8,2.7,2.5,2.7c1.7,0,2.6-0.9,2.6-2.7V89h6.9v0.3h-6.7v8.4 C328.4,99.5,327.4,100.5,325.6,100.5z"/>
    <path class="st2" d="M360.6,73.7l16,17.4V74.9c0-1.8,0.9-2.7,2.7-2.7c1.8,0,2.6,0.9,2.6,2.7v22.7c0,1.8-0.9,2.8-2.8,2.8c-1.3,0-1.9-0.5-2.9-1.6 l-15.9-17.4v16.2c0,1.8-0.9,2.8-2.7,2.8c-1.8,0-2.6-0.9-2.6-2.8V75.1c0-1.9,0.9-2.8,2.7-2.8C359,72.2,359.7,72.7,360.6,73.7"/>
    <path class="st2" d="M379.1,100.5c-1.4,0-2-0.5-3-1.6l-15.7-17.2v15.9c0,1.9-1,2.9-2.8,2.9c-1.9,0-2.7-0.9-2.7-2.9V75.1c0-1.9,1-2.9,2.8-2.9 c1.3-0.1,2.1,0.4,3,1.4l15.8,17.2V74.9c0-1.9,1-2.8,2.8-2.8c1.8,0,2.7,0.9,2.7,2.8v22.7C382,99.5,381,100.5,379.1,100.5z  M360.2,81.1l0.2,0.2l15.9,17.4c1,1.1,1.5,1.6,2.8,1.6c1.8,0,2.7-0.9,2.7-2.7V74.9c0-1.8-0.8-2.6-2.5-2.6c-1.7,0-2.6,0.8-2.6,2.6 v16.5l-0.2-0.2l-16-17.4c-0.9-1-1.6-1.5-2.8-1.4c-1.8,0-2.6,0.9-2.6,2.7v22.5c0,1.8,0.8,2.7,2.5,2.7c1.7,0,2.6-0.9,2.6-2.7V81.1z" />
    <path class="st2" d="M387,75c0-1.8,0.9-2.8,2.7-2.8c1.8,0,2.6,0.9,2.6,2.8v22.6c0,1.8-0.9,2.8-2.7,2.8c-1.8,0-2.6-0.9-2.6-2.8V75z"/>
    <path class="st2" d="M389.6,100.5c-1.9,0-2.7-0.9-2.7-2.9V75c0-1.9,1-2.9,2.8-2.9c1.9,0,2.7,0.9,2.7,2.9v22.6 C392.4,99.5,391.4,100.5,389.6,100.5z M389.7,72.3c-1.7,0-2.6,0.9-2.6,2.7v22.6c0,1.8,0.8,2.7,2.5,2.7c1.7,0,2.6-0.9,2.6-2.7V75 C392.2,73.2,391.4,72.3,389.7,72.3z"/>
    <path class="st2" d="M402.7,89.9v7.7c0,1.8-0.9,2.8-2.6,2.8c-1.8,0-2.7-0.9-2.7-2.8V74.9c0-1.8,0.9-2.7,2.7-2.7c1.8,0,2.6,0.9,2.6,2.7v7.5 l13.5-9.4c0.7-0.6,1.4-0.8,2.1-0.8c1.6,0,2.5,0.9,2.5,2.6c0,0.9-0.3,1.9-1.5,2.6l-13,8.5l13.2,8.7c1.4,0.9,1.8,1.6,1.8,2.9 c0,1.8-0.9,2.8-2.9,2.8c-0.4,0-1.1,0-2.1-0.9L402.7,89.9z"/>
    <path class="st2" d="M400.1,100.5c-1.9,0-2.8-1-2.8-2.9V74.9c0-1.9,1-2.8,2.8-2.8c1.8,0,2.7,0.9,2.7,2.8v7.3l13.3-9.3c0.6-0.6,1.4-0.8,2.2-0.8 c1.7,0,2.6,1,2.6,2.7c0,1.2-0.5,2.1-1.6,2.7l-12.8,8.4l13,8.6c1.4,0.9,1.9,1.6,1.9,3c0,1.9-1,2.9-3,2.9c-0.4,0-1.1,0-2.2-0.9 l-13.4-9.4v7.5C402.8,99.5,401.9,100.5,400.1,100.5z M400.1,72.3c-1.7,0-2.6,0.8-2.6,2.6v22.7c0,1.8,0.8,2.7,2.6,2.7 c1.6,0,2.5-0.9,2.5-2.7v-7.9l0.2,0.1l13.6,9.5c1,0.9,1.6,0.9,2,0.9c1.9,0,2.8-0.9,2.8-2.7c0-1.3-0.4-1.9-1.7-2.8l-13.4-8.8l0.2-0.1 l13-8.5c1-0.6,1.4-1.4,1.4-2.5c0-1.6-0.8-2.5-2.4-2.5c-0.8,0-1.4,0.2-2,0.8l-13.7,9.5v-7.7C402.6,73.1,401.8,72.3,400.1,72.3z"/>
    <path class="st2" d="M214.4,85.1v-4.7c0-1.7,1.4-2.6,4.2-2.6h7.1c2.8,0,4.2,0.9,4.2,2.6v4.7h5.3v-4.9c0-5.1-3.1-7.7-9.4-7.7h-7.3 c-6.3,0-9.4,2.6-9.4,7.7v4.9H214.4z"/>
    <path class="st2" d="M235.3,85.2h-5.5v-4.8c0-1.6-1.4-2.5-4.1-2.5h-7.1c-2.7,0-4.1,0.8-4.1,2.5v4.8H209v-5c0-5.2,3.2-7.8,9.5-7.8h7.3 c6.3,0,9.5,2.6,9.5,7.8V85.2z M230,85h5v-4.8c0-5-3.1-7.6-9.3-7.6h-7.3c-6.2,0-9.3,2.5-9.3,7.6V85h5.1v-4.6c0-1.2,0.8-2.7,4.3-2.7 h7.1c3.6,0,4.3,1.5,4.3,2.7V85z"/>
    <path class="st2" d="M229.9,87.8v4.3c0,1.8-1.4,2.8-4.2,2.8h-7.1c-2.8,0-4.2-0.9-4.2-2.8v-4.3h-5.3v4.6c0,5.2,3.2,7.8,9.6,7.8h7 c6.4,0,9.6-2.6,9.6-7.8v-4.6H229.9z"/>
    <path class="st2" d="M225.7,100.3h-7c-6.5,0-9.7-2.7-9.7-7.9v-4.7h5.6v4.4c0,1.8,1.3,2.7,4.1,2.7h7.1c1.9,0,4.1-0.5,4.1-2.7v-4.4h5.6v4.7 C235.4,97.7,232.2,100.3,225.7,100.3z M209.2,87.9v4.5c0,5.1,3.2,7.7,9.5,7.7h7c6.3,0,9.5-2.6,9.5-7.7v-4.5H230v4.2 c0,1.3-0.8,2.9-4.3,2.9h-7.1c-2.9,0-4.3-1-4.3-2.9v-4.2H209.2z"/>
</svg>
