<svg xmlns="http://www.w3.org/2000/svg" viewBox="0 0 512 512">
  <rect width="512" height="512" rx="96" fill="#0779bf"/>
  <!-- A letter -->
  <path d="M48 400 L176 112 H216 L344 400 H280 L256 336 H136 L112 400 Z M156 284 H236 L196 184 Z" fill="white"/>
  <!-- G letter -->
  <path d="M364 204 C364 156 388 136 428 136 H460 C468 136 472 132 472 124 C472 116 468 112 460 112 H420 C372 112 332 140 332 204 V308 C332 372 372 400 420 400 H436 C464 400 480 380 480 348 V272 H408 V340 C408 356 404 364 392 364 H420 C388 364 364 352 364 308 Z" fill="white"/>
</svg>
