<svg xmlns="http://www.w3.org/2000/svg" viewBox="0 0 512 512">
  <rect width="512" height="512" fill="white"/>
  <g transform="translate(24, 116) scale(1.1)">
    <style>
      .r{fill:#ED1C24}
      .b{fill:#0072BC}
      .k{fill:#000}
    </style>
    <path class="r" d="M69.8,62.5l21-37.2l21,37.2H134l-30.8-54c-1.7-2.9-3.6-5-5.9-6.4C95.1,0.7,92.8,0,90.6,0c-2.4,0-4.8,0.7-7,2.2c-2.2,1.4-4.1,3.5-5.6,6.3l-30.6,54H69.8z"/>
    <path class="r" d="M180,143l-19.8-34.8h-22.4l26.1,46.2v-0.2c0.9,1.7,2.1,3,3.5,3.8c1.5,0.8,3,1.2,4.5,1.2c2.4,0,4.7-0.9,6.8-2.8c2.1-1.8,3.2-4.3,3.2-7.3c0-1.8-0.7-3.9-2.1-6.2h0.2V143z"/>
    <path class="r" d="M21.4,108.2L1.5,143.4l0.1-0.2c-0.7,1-1.1,2.1-1.3,3.1s-0.3,2-0.3,2.8c0,3.1,1.1,5.6,3.2,7.5s4.4,2.8,6.9,2.8c1.7,0,3.1-0.3,4.4-1s2.3-1.9,3.2-3.6L44,108.2H21.4z"/>
    <path class="b" d="M284.3,62.5V39.2c0-12.6,13.5-18.8,40.4-18.8h15c4.7,0,7-3.1,7-9.3c0-6.3-2.3-9.5-7-9.5h-21.1c-36.3,0-54.4,12.6-54.4,37.7v23.3h20.1V62.5z"/>
    <path class="b" d="M409.3,108.3C409.3,108.3,409.3,108.2,409.3,108.3H363c-4.6,0-8.3,3.7-8.3,8.3c0,4.6,3.7,8.3,8.3,8.3h38.2c-1.5,10.6-11.1,15.9-29.1,15.9h-53.6c-22.8,0-34.2-6.4-34.2-19.3v-13.2h-20.1v13.2c0,25.4,18,38.2,53.9,38.2h54.1c32.8,0,49.2-12.8,49.2-38.3v-13L409.3,108.3z"/>
    <path class="k" d="M236.9,157l-3.3-4.4c-3.8,4.5-9.2,6.9-15.9,6.9c-10.5,0-18.3-6.4-18.3-16.3c0-9,6.2-14.4,14.4-16.6l-5.9-7.7c-1.5-2-1.8-4.6-0.7-6.9s3.4-3.8,6-3.8h19c2.1,0,3.7,1.7,3.7,3.7c0,2.1-2.2,3-4.3,3h-16l17.4,23.5l2.7-5.9c0.6-1.4,2-2.3,3.6-2.3c2.9,0,4.8,3.1,3.6,5.7l-4.7,9.6l5,6.6c1.9,2.6,0.1,6.2-3.1,6.2C238.8,158.6,237.7,158,236.9,157 M229,146.6l-11.2-14.5c-5.2,1.7-9.4,5-9.4,11.1c0,5.6,3.7,9.3,9.9,9.3C223.2,152.5,226.4,150.7,229,146.6"/>
  </g>
</svg>
